<?xml version="1.0" encoding="UTF-8"?>
<svg width="146px" height="39px" viewBox="0 0 146 39" version="1.1" xmlns="http://www.w3.org/2000/svg" xmlns:xlink="http://www.w3.org/1999/xlink">
    <title>GigaPay</title>
    <g id="Website" stroke="none" stroke-width="1" fill="none" fill-rule="evenodd">
        <g id="Artboard-Copy-2" transform="translate(-800.000000, -87.000000)" fill="#2547B6" fill-rule="nonzero">
            <path d="M808.880493,116.551346 C810.367095,116.551346 811.795016,116.337488 813.164255,115.909771 C814.533494,115.482054 815.700607,114.983051 816.665595,114.412762 L816.665595,114.412762 L817.448017,116.356929 L821.790461,116.356929 L821.790461,100.025922 C820.69507,99.9481555 819.338871,99.9092722 817.721865,99.9092722 C816.574312,99.9092722 815.368078,99.9481555 814.103162,100.025922 C812.838246,100.103689 811.814577,100.194417 811.032154,100.298106 L811.032154,100.298106 L811.032154,104.847458 L816.235263,104.847458 L816.235263,110.44666 C815.531083,110.67996 814.696499,110.874377 813.731511,111.02991 C812.766524,111.185444 811.788496,111.26321 810.797428,111.26321 C809.49339,111.26321 808.489282,111.003988 807.785102,110.485543 C807.080922,109.967099 806.572347,109.05334 806.259378,107.744267 C805.946409,106.435194 805.789925,104.52343 805.789925,102.008973 C805.789925,99.4945165 805.946409,97.5697906 806.259378,96.2347956 C806.572347,94.8998006 807.146124,93.940678 807.980707,93.3574277 C808.815291,92.7741775 810.067167,92.4825523 811.736334,92.4825523 C813.379421,92.4825523 814.989907,92.5408774 816.567792,92.6575274 C818.145677,92.7741775 819.443194,92.8973081 820.460343,93.0269192 L820.460343,93.0269192 L820.460343,88.5942173 C818.765095,88.1794616 817.174169,87.8619143 815.687567,87.6415753 C814.200965,87.4212363 812.531797,87.3110668 810.680064,87.3110668 C807.837263,87.3110668 805.639961,87.8748754 804.088156,89.0024925 C802.536352,90.1301097 801.467042,91.7437687 800.880225,93.8434696 C800.293408,95.9431705 800,98.6520439 800,101.97009 C800,105.132602 800.254287,107.770189 800.762862,109.882851 C801.271436,111.995513 802.177742,113.635095 803.481779,114.801595 C804.785816,115.968096 806.585388,116.551346 808.880493,116.551346 Z M831.688103,92.4047856 C832.183637,92.4047856 832.431404,92.1455633 832.431404,91.6271186 L832.431404,91.6271186 L832.431404,87.8165503 C832.431404,87.5832502 832.366202,87.3888335 832.235798,87.2333001 C832.105395,87.0777667 831.92283,87 831.688103,87 L831.688103,87 L827.228296,87 C826.6806,87 826.406752,87.2721834 826.406752,87.8165503 L826.406752,87.8165503 L826.406752,91.6271186 C826.406752,91.8604187 826.478474,92.0483549 826.621919,92.1909272 C826.765363,92.3334995 826.967488,92.4047856 827.228296,92.4047856 L827.228296,92.4047856 L831.688103,92.4047856 Z M832.314041,116.356929 L832.314041,95.4765703 L826.524116,95.4765703 L826.524116,116.356929 L832.314041,116.356929 Z M848.510182,126 C851.170418,126 853.165595,125.42323 854.495713,124.269691 C855.825831,123.116152 856.49089,121.489531 856.49089,119.389831 L856.49089,119.389831 L856.49089,118.80658 C856.49089,116.629113 855.851911,115.041376 854.573955,114.04337 C853.295999,113.045364 851.405145,112.546361 848.901393,112.546361 L848.901393,112.546361 L843.111468,112.546361 C842.589854,112.546361 842.153001,112.455633 841.800911,112.274177 C841.448821,112.092722 841.272776,111.794616 841.272776,111.37986 C841.272776,110.420738 842.068239,109.941176 843.659164,109.941176 L843.659164,109.941176 L847.37567,109.941176 C849.983744,109.941176 851.900679,109.364407 853.126474,108.210867 C854.352269,107.057328 854.965166,105.508475 854.965166,103.564307 C854.965166,102.449651 854.821722,101.568295 854.534834,100.920239 C854.247946,100.272183 853.869775,99.7018943 853.400322,99.2093719 L853.400322,99.2093719 L856.608253,98.6261216 L856.608253,95.4765703 L845.224009,95.4765703 C842.276885,95.4765703 840.086102,96.0338983 838.651661,97.1485543 C837.21722,98.2632104 836.5,99.9740778 836.5,102.281157 C836.5,103.577268 836.767328,104.743769 837.301983,105.780658 C837.836638,106.817547 838.690782,107.647059 839.864416,108.269192 C838.769025,108.528415 837.91488,109.014457 837.301983,109.727318 C836.689085,110.440179 836.382637,111.315055 836.382637,112.351944 C836.382637,113.829511 837.086817,114.983051 838.495177,115.812562 C837.530189,116.25324 836.760807,116.862413 836.187031,117.64008 C835.613255,118.417747 835.326367,119.325025 835.326367,120.361914 L835.326367,120.361914 L835.326367,120.984048 C835.326367,122.565304 835.965345,123.79661 837.243301,124.677966 C838.521258,125.559322 840.177385,126 842.211683,126 L842.211683,126 L848.510182,126 Z M846.710611,105.625125 L844.480707,105.625125 C843.541801,105.625125 842.844141,105.385344 842.387728,104.905783 C841.931315,104.426221 841.703108,103.680957 841.703108,102.66999 C841.703108,101.633101 841.944355,100.894317 842.426849,100.453639 C842.909343,100.012961 843.659164,99.7926221 844.676313,99.7926221 L844.676313,99.7926221 L846.867095,99.7926221 C847.832083,99.7926221 848.549303,100.019442 849.018757,100.473081 C849.48821,100.92672 849.722937,101.684945 849.722937,102.747757 C849.722937,103.680957 849.50125,104.393819 849.057878,104.886341 C848.614505,105.378863 847.832083,105.625125 846.710611,105.625125 L846.710611,105.625125 Z M847.806002,121.956132 L843.815648,121.956132 C842.82458,121.956132 842.074759,121.761715 841.566184,121.372881 C841.05761,120.984048 840.803323,120.413759 840.803323,119.662014 L840.803323,119.662014 L840.803323,119.234297 C840.803323,118.482552 841.07065,117.899302 841.605305,117.484546 C842.139961,117.069791 842.850661,116.862413 843.737406,116.862413 L843.737406,116.862413 L847.962487,116.862413 C848.979636,116.862413 849.742497,117.05683 850.251072,117.445663 C850.759646,117.834497 851.013934,118.378863 851.013934,119.078764 L851.013934,119.078764 L851.013934,119.700897 C851.013934,120.452642 850.727045,121.016451 850.153269,121.392323 C849.579493,121.768195 848.79707,121.956132 847.806002,121.956132 L847.806002,121.956132 Z M863.610932,116.590229 C864.654162,116.590229 865.677831,116.447657 866.68194,116.162512 C867.686049,115.877368 868.553233,115.540379 869.283494,115.151545 C870.013755,114.762712 870.522329,114.425723 870.809218,114.140578 L870.809218,114.140578 L871.748124,116.356929 L876.325295,116.356929 L876.325295,102.164506 C876.325295,99.5982054 875.640675,97.7966102 874.271436,96.7597208 C872.902197,95.7228315 870.835298,95.2043868 868.07074,95.2043868 C865.045373,95.2043868 862.241693,95.5932203 859.6597,96.3708873 L859.6597,96.3708873 L859.6597,99.7148554 L865.958199,99.7148554 C867.236156,99.7148554 868.201143,99.8120638 868.853162,100.006481 C869.50518,100.200897 869.948553,100.499003 870.18328,100.900798 C870.418006,101.302592 870.53537,101.85344 870.53537,102.55334 L870.53537,102.55334 L870.53537,103.992024 L865.175777,103.992024 C862.880672,103.992024 861.152822,104.484546 859.992229,105.469591 C858.831636,106.454636 858.25134,107.77667 858.25134,109.435693 L858.25134,109.435693 L858.25134,111.302094 C858.25134,112.935194 858.740354,114.224826 859.718382,115.170987 C860.696409,116.117149 861.993926,116.590229 863.610932,116.590229 Z M866.623258,112.585244 C864.901929,112.585244 864.041265,111.846461 864.041265,110.368893 L864.041265,110.368893 L864.041265,109.51346 C864.041265,107.958126 865.032333,107.102692 867.014469,106.947159 L867.014469,106.947159 L870.53537,106.713858 L870.53537,111.574277 C870.300643,111.703888 869.739907,111.904786 868.853162,112.176969 C867.966417,112.449153 867.223115,112.585244 866.623258,112.585244 Z M886.731511,116.356929 L886.731511,106.947159 C887.670418,107.07677 888.80493,107.212861 890.135048,107.355434 C891.465166,107.498006 892.547517,107.569292 893.382101,107.569292 C898.780815,107.569292 901.480171,104.199402 901.480171,97.4596211 C901.480171,93.5712861 900.697749,90.9531406 899.132905,89.6051844 C897.56806,88.2572283 895.572883,87.5832502 893.147374,87.5832502 L893.147374,87.5832502 L880.941586,87.5832502 L880.941586,116.356929 L886.731511,116.356929 Z M892.482315,102.397807 L886.731511,102.397807 L886.731511,92.7547358 L892.599678,92.7547358 C894.633976,92.7547358 895.651125,94.335992 895.651125,97.4985045 C895.651125,99.2093719 895.383798,100.453639 894.849143,101.231306 C894.314487,102.008973 893.525545,102.397807 892.482315,102.397807 L892.482315,102.397807 Z M909.421758,116.590229 C910.464987,116.590229 911.488657,116.447657 912.492765,116.162512 C913.496874,115.877368 914.364059,115.540379 915.094319,115.151545 C915.82458,114.762712 916.333155,114.425723 916.620043,114.140578 L916.620043,114.140578 L917.55895,116.356929 L922.13612,116.356929 L922.13612,102.164506 C922.13612,99.5982054 921.451501,97.7966102 920.082262,96.7597208 C918.713023,95.7228315 916.646124,95.2043868 913.881565,95.2043868 C910.856199,95.2043868 908.052519,95.5932203 905.470525,96.3708873 L905.470525,96.3708873 L905.470525,99.7148554 L911.769025,99.7148554 C913.046981,99.7148554 914.011969,99.8120638 914.663987,100.006481 C915.316006,100.200897 915.759378,100.499003 915.994105,100.900798 C916.228832,101.302592 916.346195,101.85344 916.346195,102.55334 L916.346195,102.55334 L916.346195,103.992024 L910.986602,103.992024 C908.691497,103.992024 906.963648,104.484546 905.803055,105.469591 C904.642462,106.454636 904.062165,107.77667 904.062165,109.435693 L904.062165,109.435693 L904.062165,111.302094 C904.062165,112.935194 904.551179,114.224826 905.529207,115.170987 C906.507235,116.117149 907.804752,116.590229 909.421758,116.590229 Z M912.434084,112.585244 C910.712755,112.585244 909.85209,111.846461 909.85209,110.368893 L909.85209,110.368893 L909.85209,109.51346 C909.85209,107.958126 910.843158,107.102692 912.825295,106.947159 L912.825295,106.947159 L916.346195,106.713858 L916.346195,111.574277 C916.111468,111.703888 915.550732,111.904786 914.663987,112.176969 C913.777242,112.449153 913.033941,112.585244 912.434084,112.585244 Z M939,125.5 L946,95.4765703 L940.131833,95.4765703 L936.337085,111.652044 C935.867631,111.600199 935.424259,111.457627 935.006967,111.224327 C934.589675,110.991027 934.276706,110.44666 934.06806,109.591226 L930.742765,95.4765703 L924.718114,95.4765703 L928.669346,110.757727 C929.634334,114.490528 931.851197,116.356929 935.319936,116.356929 L933.050911,125.572283 L939,125.5 Z" id="GigaPay"></path>
        </g>
    </g>
</svg>