<svg width="146" height="39" viewBox="0 0 211 61" fill="none" xmlns="http://www.w3.org/2000/svg">
<g clip-path="url(#clip0_1_82)">
<path d="M202.389 14.6032L193.802 44.6979L187.417 14.6032H178.598L186.173 44.9377C186.312 45.4886 186.614 45.9749 187.033 46.3215C187.452 46.6681 187.964 46.8558 188.491 46.8557H193.18L192.917 47.7919C192.487 49.2994 191.623 50.6182 190.451 51.5551C189.279 52.4919 187.861 52.9975 186.405 52.9979H181.316V60.7614H185.689C188.697 60.7681 191.633 59.7591 194.087 57.8747C196.542 55.9902 198.394 53.324 199.386 50.2465L210.818 14.6032H202.389Z" fill="#F3F3F4"/>
<path d="M48 14.5011H39.455V46.765H48V14.5011Z" fill="#F3F3F4"/>
<path d="M72.7854 18.0363C72.6168 17.6367 70.8151 13.8349 64.272 13.7436C55.3794 13.618 52.9349 21.233 52.9349 26.165V37.5819C52.9294 38.7888 53.1433 39.9851 53.5644 41.1024C53.9855 42.2198 54.6056 43.2363 55.3893 44.0939C56.173 44.9516 57.105 45.6336 58.1319 46.101C59.1588 46.5684 60.2607 46.8121 61.3745 46.818H64.3563C65.0156 46.8186 65.6683 46.6765 66.2763 46.4C66.8842 46.1236 67.4351 45.7184 67.8965 45.2083L72.5958 39.8766L66.6743 39.9451C65.9987 39.9466 65.3295 39.8036 64.705 39.5241C64.0806 39.2446 63.5132 38.8343 63.0355 38.3167C62.5577 37.799 62.1791 37.1842 61.9211 36.5076C61.6632 35.831 61.5312 35.1058 61.5326 34.3737V26.1879C61.5312 25.4558 61.6632 24.7306 61.9211 24.054C62.1791 23.3774 62.5577 22.7626 63.0355 22.2449C63.5132 21.7273 64.0806 21.317 64.705 21.0375C65.3295 20.758 65.9987 20.615 66.6743 20.6165H68.2653C69.4138 20.6165 70.5153 21.1108 71.3274 21.9908C72.1395 22.8708 72.5958 24.0643 72.5958 25.3088V39.888V48.6676C72.5874 49.9041 72.129 51.0871 71.32 51.9594C70.5111 52.8317 69.4171 53.3227 68.2759 53.3256H54.7682V60.7694H69.9301C71.4095 60.7769 72.8757 60.4677 74.2444 59.8594C75.6132 59.2512 76.8576 58.3559 77.9062 57.225C78.9547 56.0942 79.7868 54.75 80.3545 53.2697C80.9223 51.7894 81.2145 50.2021 81.2145 48.5991V14.6112H72.7854V18.0363Z" fill="#F3F3F4"/>
<path d="M102.346 14.6032H87.7003V21.6931H99.9014C100.397 21.6838 100.889 21.7826 101.348 21.9834C101.808 22.1843 102.226 22.4831 102.576 22.8622C102.927 23.2413 103.204 23.693 103.391 24.1903C103.578 24.6877 103.67 25.2206 103.663 25.7575V28.1322C100.826 27.3493 97.9082 26.9656 94.981 26.9905C88.5643 27.2188 84.708 31.4887 84.708 36.4778V37.7337C84.708 42.7228 87.5528 46.8671 92.958 46.8671H97.025C97.9673 46.824 98.8596 46.3957 99.5221 45.6684L103.737 41.0331V46.9014H112.071V25.3122C112.088 22.496 111.074 19.7875 109.251 17.7802C107.428 15.7728 104.945 14.6304 102.346 14.6032ZM103.789 40.9418H96.9197C96.4034 40.961 95.8891 40.8648 95.4086 40.6591C94.9282 40.4535 94.492 40.1428 94.1273 39.7465C93.7625 39.3502 93.477 38.8768 93.2885 38.3556C93.1 37.8345 93.0126 37.2769 93.0317 36.7176C93.0317 35.6003 93.4414 34.5288 94.1705 33.7387C94.8996 32.9486 95.8885 32.5048 96.9197 32.5048H102.125C102.343 32.5048 102.56 32.5515 102.762 32.6421C102.964 32.7328 103.147 32.8656 103.302 33.0331C103.456 33.2006 103.579 33.3995 103.663 33.6183C103.746 33.8372 103.789 34.0718 103.789 34.3087V40.9418Z" fill="#F3F3F4"/>
<path d="M16.8754 30.0799H26.3581V39.6929H16.4223C14.3461 39.6929 12.3549 38.7992 10.8867 37.2084C9.41859 35.6176 8.5938 33.4599 8.5938 31.2102V18.0694C8.59659 16.2759 9.2561 14.5568 10.4275 13.2896C11.599 12.0224 13.1866 11.3107 14.8419 11.3107H31.6052V3.31892H14.2413C12.3813 3.31892 10.5395 3.71627 8.82132 4.48824C7.10315 5.26021 5.54229 6.39166 4.22804 7.81786C2.91378 9.24406 1.87191 10.937 1.16203 12.7999C0.452153 14.6628 0.0881881 16.6591 0.0909581 18.6745V30.8334C0.0909581 35.0725 1.64507 39.138 4.4114 42.1355C7.17773 45.133 10.9297 46.817 14.8419 46.817H18.0028C18.6849 46.817 19.36 46.6685 19.9881 46.3802C20.6162 46.0919 21.1844 45.6697 21.6589 45.1387L26.4319 39.7157V46.817H34.2077V22.8417H16.8754V30.0799Z" fill="#F3F3F4"/>
<path d="M48 0H39.455V9.25903H48V0Z" fill="#F3F3F4"/>
<path d="M166.941 14.6036H152.285V21.6934H164.455C164.95 21.6842 165.442 21.7829 165.902 21.9838C166.361 22.1846 166.779 22.4834 167.13 22.8626C167.481 23.2417 167.758 23.6933 167.944 24.1907C168.131 24.688 168.224 25.221 168.216 25.7578V28.1325C165.38 27.3488 162.462 26.9651 159.534 26.9908C153.118 27.2191 149.261 31.489 149.261 36.4782V37.734C149.261 42.7232 152.106 46.8675 157.511 46.8675H161.526C162.498 46.8476 163.424 46.4175 164.107 45.6687L168.374 41.0335V46.9017H176.709V25.3125C176.717 23.9143 176.471 22.5279 175.984 21.2327C175.498 19.9376 174.781 18.759 173.874 17.7645C172.966 16.7699 171.887 15.9788 170.698 15.4364C169.508 14.8941 168.232 14.611 166.941 14.6036ZM168.374 40.9422H161.505C160.988 40.9613 160.474 40.8651 159.994 40.6595C159.513 40.4538 159.077 40.1432 158.712 39.7469C158.348 39.3506 158.062 38.8771 157.874 38.356C157.685 37.8349 157.598 37.2773 157.617 36.7179C157.617 35.6006 158.026 34.5291 158.756 33.739C159.485 32.949 160.474 32.5051 161.505 32.5051H166.71C166.928 32.5051 167.145 32.5518 167.347 32.6424C167.549 32.7331 167.732 32.866 167.887 33.0335C168.041 33.201 168.164 33.3998 168.248 33.6187C168.331 33.8375 168.374 34.0721 168.374 34.309V40.9422Z" fill="#F3F3F4"/>
<path d="M137.743 14.6033H116.386V61.0012H124.815V21.6931H133.792C134.11 21.6931 134.424 21.7611 134.718 21.8932C135.011 22.0253 135.277 22.2189 135.502 22.4629C135.726 22.7069 135.903 22.9964 136.024 23.315C136.145 23.6335 136.206 23.9747 136.205 24.319V37.3113C136.209 37.6585 136.149 38.0031 136.029 38.325C135.909 38.6469 135.731 38.9397 135.506 39.1863C135.28 39.4328 135.011 39.6282 134.715 39.7611C134.419 39.8939 134.102 39.9615 133.781 39.96H124.931L130.346 45.8282C130.645 46.1519 131 46.4075 131.391 46.58C131.781 46.7526 132.2 46.8386 132.622 46.8329H138.544C140.34 46.8152 142.059 46.0355 143.331 44.6612C144.603 43.2868 145.328 41.427 145.35 39.4805L145.487 23.0745C145.5 21.965 145.309 20.8639 144.925 19.8352C144.541 18.8065 143.972 17.8707 143.252 17.0824C142.531 16.2941 141.673 15.669 140.727 15.2434C139.781 14.8177 138.767 14.6002 137.743 14.6033Z" fill="#F3F3F4"/>
</g>
<defs>
<clipPath id="clip0_1_82">
<rect width="210.727" height="61" fill="white" transform="translate(0.0909424)"/>
</clipPath>
</defs>
</svg>
