<svg id="Lager_1" data-name="Lager 1" xmlns="http://www.w3.org/2000/svg"  width="146px" height="39px" viewBox="0 0 200 53.43"><defs><style>.cls-1{fill:#3680ff;}.cls-2{fill:#FFFBF1;}</style></defs><path class="cls-1" d="M192,12.79l-8.15,26.36-6.06-26.36h-8.37l7.19,26.57a2.28,2.28,0,0,0,2.2,1.68h4.45l-.25.82a6.47,6.47,0,0,1-6.18,4.56H172v6.8h4.15a13.74,13.74,0,0,0,13-9.21L200,12.79Z"/><rect class="cls-2" x="37.36" y="12.7" width="8.11" height="28.26"/><path class="cls-2" d="M69,15.79c-.16-.35-1.87-3.68-8.08-3.76-8.44-.11-10.76,6.56-10.76,10.88v10A8.05,8.05,0,0,0,58.17,41H61a4.7,4.7,0,0,0,3.36-1.41l4.46-4.67-5.62.06a4.87,4.87,0,0,1-4.88-4.88V22.93a4.87,4.87,0,0,1,4.88-4.88h1.51a4.11,4.11,0,0,1,4.11,4.11V34.93l0,7.69a4.11,4.11,0,0,1-4.1,4.08H51.9v6.52H66.29A10.66,10.66,0,0,0,77,42.56V12.79H69Z"/><path class="cls-2" d="M97.05,12.79H83.15V19H94.73a3.51,3.51,0,0,1,3.57,3.56l0,2.08a32.36,32.36,0,0,0-8.24-1c-6.09.2-9.75,3.94-9.75,8.31v1.1c0,4.37,2.7,8,7.83,8H92A3.54,3.54,0,0,0,94.37,40l4-4.06,0,5.14h7.91V22.17A9.32,9.32,0,0,0,97.05,12.79Zm1.37,23.07H91.9a3.57,3.57,0,0,1-3.69-3.7,3.69,3.69,0,0,1,3.69-3.69h4.94a1.58,1.58,0,0,1,1.58,1.58Z"/><path class="cls-2" d="M15.93,26.34h9v8.42H15.5a7.43,7.43,0,0,1-7.43-7.43V15.82A5.93,5.93,0,0,1,14,9.9H29.91v-7H13.43A13.43,13.43,0,0,0,0,16.35V27A14,14,0,0,0,14,41h3a4.83,4.83,0,0,0,3.47-1.47L25,34.78V41h7.38v-21H15.93Z"/><rect class="cls-2" x="37.36" width="8.11" height="8.11"/><path class="cls-1" d="M158.36,12.79H144.45V19H156a3.51,3.51,0,0,1,3.57,3.56l0,2.08a32.29,32.29,0,0,0-8.24-1c-6.09.2-9.75,3.94-9.75,8.31v1.1c0,4.37,2.7,8,7.83,8h3.81A3.54,3.54,0,0,0,155.67,40l4.05-4.06,0,5.14h7.91V22.17A9.32,9.32,0,0,0,158.36,12.79Zm1.36,23.07H153.2a3.57,3.57,0,0,1-3.69-3.7,3.69,3.69,0,0,1,3.69-3.69h4.94a1.58,1.58,0,0,1,1.58,1.58Z"/><path class="cls-1" d="M130.65,12.79H110.38V53.43h8V19h8.52a2.29,2.29,0,0,1,2.29,2.3V32.68A2.29,2.29,0,0,1,126.89,35l-8.4,0,5.14,5.14a3,3,0,0,0,2.16.88h5.62a6.52,6.52,0,0,0,6.46-6.44L138,20.21A7.33,7.33,0,0,0,130.65,12.79Z"/></svg>